<svg xmlns="http://www.w3.org/2000/svg" width="109" height="18" viewBox="0 0 109 18">
  <g id="Group_53867" data-name="Group 53867" transform="translate(-281 -45)">
    <g id="Layer_2" data-name="Layer 2" transform="translate(279 43)">
      <circle id="Ellipse_164" data-name="Ellipse 164" cx="0.771" cy="0.771" r="0.771" transform="translate(4.94 7.015)" fill="#2b2d40"/>
      <path id="Path_149342" data-name="Path 149342" d="M15.143,11.285h-4.5a.643.643,0,0,1,0-1.286h4.5a.643.643,0,0,1,0,1.286Z" transform="translate(-2.857 -2.857)" fill="#2b2d40"/>
      <circle id="Ellipse_165" data-name="Ellipse 165" cx="0.771" cy="0.771" r="0.771" transform="translate(4.94 10.229)" fill="#2b2d40"/>
      <path id="Path_149343" data-name="Path 149343" d="M15.143,16.285h-4.5a.643.643,0,0,1,0-1.286h4.5a.643.643,0,0,1,0,1.286Z" transform="translate(-2.857 -4.642)" fill="#2b2d40"/>
      <circle id="Ellipse_166" data-name="Ellipse 166" cx="0.771" cy="0.771" r="0.771" transform="translate(4.94 13.444)" fill="#2b2d40"/>
      <path id="Path_149344" data-name="Path 149344" d="M15.143,21.285h-4.5a.643.643,0,1,1,0-1.286h4.5a.643.643,0,0,1,0,1.286Z" transform="translate(-2.857 -6.428)" fill="#2b2d40"/>
      <path id="Path_149345" data-name="Path 149345" d="M24.571,23.214A2.574,2.574,0,0,1,22,20.643v-9A.643.643,0,0,1,22.643,11H26.5a.643.643,0,0,1,.643.643v9A2.574,2.574,0,0,1,24.571,23.214ZM23.286,12.286v8.357a1.286,1.286,0,1,0,2.571,0V12.286Z" transform="translate(-7.143 -3.214)" fill="#2b2d40"/>
      <path id="Path_149346" data-name="Path 149346" d="M17.428,20H5.857A3.861,3.861,0,0,1,2,16.143V3.851a1.477,1.477,0,0,1,.805-1.342,1.338,1.338,0,0,1,1.408.135.8.8,0,0,0,.57.211.909.909,0,0,0,.673-.288,2.19,2.19,0,0,1,2.943,0,.9.9,0,0,0,.665.286.913.913,0,0,0,.673-.288,2.2,2.2,0,0,1,2.949,0,.9.9,0,0,0,.666.286.8.8,0,0,0,.57-.205,1.337,1.337,0,0,1,1.417-.141,1.472,1.472,0,0,1,.8,1.336V17.429a1.287,1.287,0,0,0,1.286,1.286.643.643,0,1,1,0,1.286Zm-14-16.336a.167.167,0,0,0-.145.187V16.143a2.574,2.574,0,0,0,2.571,2.571H15.2a2.557,2.557,0,0,1-.345-1.286V3.845a.19.19,0,0,0-.09-.185,2.337,2.337,0,0,1-1.414.48,2.147,2.147,0,0,1-1.468-.567.93.93,0,0,0-1.346,0,2.191,2.191,0,0,1-2.942,0,.923.923,0,0,0-1.338,0,2.155,2.155,0,0,1-1.475.569,2.056,2.056,0,0,1-1.353-.476Z" transform="translate(0 0)" fill="#2b2d40"/>
    </g>
    <text id="Payment_History" data-name="Payment History" transform="translate(303 59)" fill="#2b2d40" font-size="12" font-family="SegoeUI, Segoe UI"><tspan x="0" y="0">Payment History</tspan></text>
  </g>
</svg>
